<svg viewBox="0 0 100 100" xmlns="http://www.w3.org/2000/svg">
    <defs>
        <linearGradient id="lyftivLogoGradient" x1="0%" y1="0%" x2="100%" y2="100%">
            <stop offset="0%" stop-color="hsl(200, 80%, 85%)" />
            <stop offset="100%" stop-color="hsl(260, 60%, 85%)" />
        </linearGradient>
    </defs>
    <rect x="0" y="0" width="100" height="100" rx="20" ry="20" fill="url(#lyftivLogoGradient)"/>
    <path d="M 15 50 C 15 35 30 30 50 30 C 70 30 85 35 85 50 C 85 65 70 70 50 70 C 30 70 15 65 15 50 Z M 25 50 L 75 50 M 25 35 L 25 65 M 75 35 L 75 65" stroke="hsl(220, 60%, 55%)" stroke-width="3.5" fill="none" stroke-linecap="round"/>
    <circle cx="25" cy="50" r="14" stroke="hsl(220, 60%, 55%)" stroke-width="2" fill="none"/>
    <circle cx="25" cy="50" r="10" stroke="hsl(220, 60%, 55%)" stroke-width="2" fill="none"/>
    <circle cx="25" cy="50" r="6" stroke="hsl(220, 60%, 55%)" stroke-width="2" fill="none"/>
    <circle cx="75" cy="50" r="14" stroke="hsl(220, 60%, 55%)" stroke-width="2" fill="none"/>
    <circle cx="75" cy="50" r="10" stroke="hsl(220, 60%, 55%)" stroke-width="2" fill="none"/>
    <circle cx="75" cy="50" r="6" stroke="hsl(220, 60%, 55%)" stroke-width="2" fill="none"/>
    <rect x="35" y="48.5" width="30" height="3" rx="1.5" ry="1.5" fill="white"/>
</svg>
